#!OML:ASF Y:\EmotionMaleHayes\Project 1\Capture day 1\Session 1\Male1.ASF
:FULLY-SPECIFIED
:DEGREES
683
root 34.7832 16.8104 13.9526 -171.848 63.5841 -172.22
lowerback 11.211 1.35174 -6.10227
upperback 4.29724 1.36953 -1.09587
thorax -1.88621 0.754001 2.11505
lowerneck -18.921 -1.15612 4.11005
upperneck 21.0656 -0.463864 -8.56774
head 9.76694 -0.794006 -3.75107
rclavicle 7.55382e-015 2.54444e-014
rhumerus -49.175 10.5035 -86.4794
rradius 38.1976
rwrist -11.6069
rhand -23.3225 -35.7326
rfingers 7.12502
rthumb 3.13169 -65.6894
lclavicle 7.55382e-015 2.54444e-014
lhumerus -41.9365 -29.1831 95.0922
lradius 67.9913
lwrist 15.8981
lhand -18.0148 -20.5446
lfingers 7.12502
lthumb 8.25605 9.27412
rfemur -20.272 -2.62042 3.71294
rtibia 51.0387
rfoot -8.18466 -5.89695
rtoes -3.59329
lfemur 5.48873 -11.2887 -39.8343
ltibia 11.9964
lfoot -12.1066 2.2441
ltoes 32.7879
684
root 34.9777 16.8358 13.9235 -170.743 61.3192 -171.127
lowerback 11.1064 1.03532 -5.4505
upperback 4.34195 1.03397 -0.661065
thorax -1.75686 0.582408 2.24803
lowerneck -22.1984 -1.33972 -0.401788
upperneck 24.6704 -0.399981 -3.55742
head 11.7661 -0.588529 -1.30318
rclavicle 2.8625e-014 -1.90833e-014
rhumerus -50.7569 9.73072 -85.6485
rradius 37.9746
rwrist -11.6074
rhand -23.0223 -36.0678
rfingers 7.12502
rthumb 3.42161 -66.0201
lclavicle 2.8625e-014 -1.90833e-014
lhumerus -40.6326 -31.381 95.2582
lradius 70.8088
lwrist 14.6275
lhand -17.4449 -21.3448
lfingers 7.12502
lthumb 8.80605 8.45151
rfemur -20.6143 -2.83448 4.65333
rtibia 48.2846
rfoot -8.22495 -6.88128
rtoes -4.37111
lfemur 7.01991 -11.5872 -38.8019
ltibia 10.6812
lfoot -11.7406 1.50826
ltoes 34.9608
685
root 35.1798 16.8562 13.885 -171.625 59.2235 -172.466
lowerback 10.7657 0.738502 -5.94197
upperback 4.34 0.616834 -0.594382
thorax -1.54114 0.364985 2.64911
lowerneck -22.294 -1.59729 -0.673092
upperneck 24.7421 -0.701392 -3.41644
head 11.8087 -0.731166 -1.25663
rclavicle 2.38542e-015 1.90833e-014
rhumerus -52.3303 8.90311 -84.7637
rradius 37.94
rwrist -11.8687
rhand -22.689 -36.2126
rfingers 7.12502
rthumb 3.74338 -66.1595
lclavicle 2.38542e-015 1.90833e-014
lhumerus -39.1721 -33.4947 95.1371
lradius 73.5043
lwrist 13.4603
lhand -17.0372 -21.4785
lfingers 7.12502
lthumb 9.19941 8.30081
rfemur -21.0063 -3.49275 4.08948
rtibia 45.3635
rfoot -8.9942 -7.56033
rtoes -2.81782
lfemur 8.25248 -11.2564 -38.9002
ltibia 9.55094
lfoot -11.0604 0.188949
ltoes 37.4081
686
root 35.3804 16.8739 13.8451 -171.732 57.3461 -173.125
lowerback 10.3661 0.511027 -6.11349
upperback 4.22805 0.315504 -0.512723
thorax -1.41266 0.207312 2.86798
lowerneck -22.4983 -2.13475 -0.920558
upperneck 24.7602 -1.417 -3.27446
head 11.8457 -1.06052 -1.28363
rclavicle 4.81059e-014 -8.74653e-015
rhumerus -53.9798 8.09888 -83.9289
rradius 38.077
rwrist -12.1179
rhand -21.9814 -36.3124
rfingers 7.12502
rthumb 4.42676 -66.2461
lclavicle 4.81059e-014 -8.74653e-015
lhumerus -37.7713 -35.6124 94.9067
lradius 76.1876
lwrist 12.497
lhand -17.0383 -21.3211
lfingers 7.12502
lthumb 9.19841 8.45831
rfemur -21.563 -3.89534 3.89347
rtibia 42.3186
rfoot -9.97588 -8.30535
rtoes -3.66227
lfemur 9.15369 -10.5667 -38.4756
ltibia 8.54849
lfoot -10.3641 -1.25435
ltoes 37.2631
687
root 35.5781 16.8831 13.8196 -171.596 55.4547 -173.473
lowerback 10.1726 0.326638 -6.25627
upperback 4.04717 0.0552174 -0.371805
thorax -1.47022 0.0756311 3.12476
lowerneck -22.6763 -2.57286 -1.77649
upperneck 25.0181 -1.9241 -2.54715
head 11.9932 -1.27248 -0.95974
rclavicle -3.18055e-014 -2.06736e-014
rhumerus -55.7806 7.48737 -83.272
rradius 38.2775
rwrist -12.2168
rhand -21.4138 -36.101
rfingers 7.12502
rthumb 4.97477 -66.0226
lclavicle -3.18055e-014 -2.06736e-014
lhumerus -36.2759 -37.5852 94.5997
lradius 78.7544
lwrist 11.8067
lhand -17.3165 -21.5452
lfingers 7.12502
lthumb 8.92999 8.24578
rfemur -22.0961 -4.141 3.90898
rtibia 39.1521
rfoot -10.4652 -9.45307
rtoes -3.12078
lfemur 9.83571 -9.91449 -37.7518
ltibia 7.87992
lfoot -10.0112 -2.54368
ltoes 35.5543
688
root 35.7722 16.8835 13.7913 -171.301 53.6102 -173.678
lowerback 9.7491 0.121006 -6.41802
upperback 4.00322 -0.205853 -0.143232
thorax -1.25452 -0.0667223 3.4815
lowerneck -22.4289 -3.02148 -1.91382
upperneck 24.6738 -2.5148 -2.6058
head 11.8087 -1.55884 -1.04767
rclavicle 5.96354e-015 -1.27222e-014
rhumerus -57.347 7.12018 -82.5683
rradius 38.559
rwrist -12.5467
rhand -21.2428 -35.8012
rfingers 7.12502
rthumb 5.13988 -65.7188
lclavicle 5.96354e-015 -1.27222e-014
lhumerus -34.1602 -39.2562 93.9122
lradius 81.0759
lwrist 11.2005
lhand -17.4545 -22.2454
lfingers 7.12502
lthumb 8.79677 7.55128
rfemur -22.5959 -4.46567 3.96904
rtibia 35.8395
rfoot -10.9954 -10.4002
rtoes -9.05569
lfemur 10.4138 -9.71759 -37.067
ltibia 7.52022
lfoot -10.0892 -3.3823
ltoes 35.6375
689
root 35.9683 16.877 13.7525 -170.784 51.8837 -173.603
lowerback 9.29373 -0.0681891 -6.23479
upperback 3.93111 -0.417748 0.0101925
thorax -1.05868 -0.180981 3.55722
lowerneck -22.2385 -3.41571 -2.18182
upperneck 24.4061 -3.0497 -2.41752
head 11.6739 -1.80072 -1.01337
rclavicle 3.73715e-014 2.38542e-015
rhumerus -59.0262 6.69218 -81.9847
rradius 39.0154
rwrist -13.0833
rhand -21.1578 -35.6453
rfingers 7.12502
rthumb 5.22194 -65.5609
lclavicle 3.73715e-014 2.38542e-015
lhumerus -31.9751 -40.9339 92.9364
lradius 83.2222
lwrist 10.7597
lhand -17.4116 -23.0794
lfingers 7.12502
lthumb 8.8382 6.71547
rfemur -22.968 -4.76227 4.18807
rtibia 32.4545
rfoot -11.8838 -11.0514
rtoes -12.8177
lfemur 10.9891 -9.50969 -36.246
ltibia 7.28254
lfoot -10.0943 -4.17407
ltoes 36.9619
